<?xml version="1.0" standalone="no"?>
<!DOCTYPE svg PUBLIC "-//W3C//DTD SVG 20010904//EN"
 "http://www.w3.org/TR/2001/REC-SVG-20010904/DTD/svg10.dtd">
<svg version="1.0" xmlns="http://www.w3.org/2000/svg"
 width="1024.000000pt" height="1024.000000pt" viewBox="0 0 1024.000000 1024.000000"
 preserveAspectRatio="xMidYMid meet">

<g transform="translate(0.000000,1024.000000) scale(0.100000,-0.100000)"
fill="#00a3e4" stroke="none">
<path d="M3947 7424 c-227 -41 -424 -149 -607 -333 -234 -236 -394 -575 -403
-855 l-2 -69 60 -49 c182 -149 370 -211 572 -188 295 33 531 153 760 386 167
171 274 351 318 536 20 86 19 131 -4 159 l-19 24 -99 -96 c-54 -52 -123 -114
-153 -137 -100 -74 -242 -131 -367 -145 l-43 -5 0 68 c0 79 25 169 63 226 93
135 325 297 530 367 9 4 17 11 17 17 0 16 -125 69 -215 91 -97 23 -290 24
-408 3z"/>
<path d="M5945 7434 c-156 -32 -285 -80 -285 -107 0 -8 36 -27 86 -47 151 -59
337 -184 417 -282 68 -83 91 -142 95 -250 l4 -97 -38 5 c-194 28 -350 112
-527 283 l-99 96 -19 -24 c-25 -31 -24 -59 6 -176 56 -222 234 -473 468 -660
189 -151 447 -245 673 -245 210 0 344 53 550 218 l28 23 -22 130 c-52 307
-183 566 -398 784 -182 184 -374 293 -598 339 -69 15 -287 21 -341 10z"/>
<path d="M4607 6156 c-51 -19 -76 -42 -99 -95 -26 -56 -18 -115 23 -171 29
-40 30 -42 27 -151 l-3 -110 -104 -40 c-213 -80 -357 -173 -506 -324 -110
-112 -168 -201 -219 -339 -29 -78 -30 -88 -31 -246 0 -146 3 -174 23 -240 136
-431 572 -759 1132 -851 163 -27 439 -22 595 11 320 68 594 207 788 402 243
244 343 520 293 808 -34 195 -138 367 -315 523 -126 112 -323 224 -483 277
l-68 22 0 118 c0 94 3 120 16 131 27 22 46 69 46 114 0 171 -234 234 -313 85
-25 -47 -25 -125 1 -173 16 -29 20 -56 20 -127 l0 -90 -47 7 c-67 10 -401 10
-505 0 l-88 -9 0 94 c0 64 4 100 14 113 7 11 19 38 25 60 34 123 -101 245
-222 201z"/>
<path d="M7290 5853 c-72 -58 -190 -118 -287 -145 -63 -18 -105 -22 -218 -22
-77 -1 -164 3 -192 7 -38 5 -53 4 -53 -4 0 -19 -60 -131 -91 -170 -16 -20 -29
-40 -29 -44 0 -4 39 -49 88 -100 96 -103 171 -218 209 -322 13 -37 26 -69 28
-71 8 -8 221 100 279 142 69 50 107 88 159 163 106 152 173 373 165 544 l-3
66 -55 -44z"/>
<path d="M2870 5827 c0 -150 51 -339 125 -461 106 -177 207 -262 417 -352 l78
-33 14 47 c42 142 157 316 275 415 l32 26 -36 49 c-19 27 -49 80 -66 117 -28
63 -32 67 -57 61 -56 -14 -259 -18 -327 -8 -136 22 -292 86 -393 162 -29 22
-55 40 -57 40 -3 0 -5 -28 -5 -63z"/>
<path d="M2432 5402 c-12 -32 8 -269 28 -342 38 -133 75 -196 180 -301 93 -93
229 -204 321 -261 l46 -29 104 10 c57 5 156 13 219 16 l115 7 -3 144 -3 144
-194 0 -194 0 -160 150 c-231 217 -290 290 -327 406 -16 50 -17 50 -71 60 -45
8 -56 8 -61 -4z"/>
<path d="M7719 5407 c-44 -9 -47 -12 -63 -62 -32 -102 -109 -198 -335 -420
-139 -135 -109 -124 -338 -131 l-199 -7 -1 -142 -2 -143 112 -6 c62 -4 158
-12 215 -17 102 -11 102 -11 150 17 69 40 267 200 343 276 106 108 159 232
180 423 11 103 6 227 -9 224 -4 -1 -28 -6 -53 -12z"/>
<path d="M2473 4449 c-29 -17 -53 -37 -53 -44 0 -24 121 -196 188 -267 67 -71
200 -166 304 -219 l59 -30 322 82 c177 45 324 83 325 85 2 1 -19 40 -46 86
-28 46 -56 100 -63 121 -9 26 -19 37 -34 37 -11 0 -117 -14 -236 -31 l-216
-31 -74 32 c-98 43 -322 155 -370 186 -21 13 -42 24 -46 24 -5 0 -32 -14 -60
-31z"/>
<path d="M7674 4471 c-17 -16 -298 -159 -386 -196 l-87 -38 -213 32 c-117 17
-224 31 -238 31 -21 0 -29 -9 -49 -62 -13 -33 -39 -88 -58 -121 -18 -33 -32
-60 -31 -61 2 -1 37 -10 78 -20 41 -10 120 -31 175 -47 55 -16 165 -44 244
-63 l143 -34 97 49 c177 89 298 201 395 368 66 113 66 105 -2 140 -32 16 -63
26 -68 22z"/>
<path d="M3635 3838 c-150 -52 -428 -159 -439 -169 -14 -13 -57 -324 -59 -429
-2 -93 -1 -99 36 -174 39 -79 156 -217 157 -185 0 9 34 135 76 280 42 145 78
274 81 286 4 16 63 58 213 151 l208 128 -81 75 -82 74 -110 -37z"/>
<path d="M6395 3806 c-70 -65 -78 -76 -65 -89 20 -19 172 -112 295 -181 l99
-56 37 -127 c112 -395 131 -459 138 -466 10 -10 90 76 124 134 39 66 67 155
67 211 0 75 -51 422 -63 434 -18 17 -524 215 -548 214 -2 0 -40 -34 -84 -74z"/>
<path d="M4044 3557 c-23 -18 -105 -77 -183 -132 l-142 -99 6 -66 c26 -260 78
-382 209 -480 49 -37 169 -102 212 -114 l21 -7 -18 78 c-15 64 -56 312 -73
449 -4 30 0 33 170 139 96 60 173 109 171 110 -1 1 -45 21 -98 44 -54 23 -121
58 -150 76 -30 19 -61 34 -69 34 -8 0 -33 -15 -56 -32z"/>
<path d="M5953 3509 l-152 -78 42 -29 c23 -16 101 -64 172 -107 72 -43 131
-78 132 -79 4 -3 -65 -446 -77 -500 -6 -27 -9 -50 -8 -51 9 -8 120 47 191 95
164 111 225 244 239 514 l3 58 -185 129 c-102 71 -189 128 -195 127 -5 0 -78
-36 -162 -79z"/>
</g>
</svg>
